<?xml version="1.0" encoding="iso-8859-1"?>
<!-- Uploaded to: SVG Repo, www.svgrepo.com, Generator: SVG Repo Mixer Tools -->
<svg class="trackIcon" fill="#000000" height="17px" width="17px" version="1.1" id="Layer_1" xmlns="http://www.w3.org/2000/svg" xmlns:xlink="http://www.w3.org/1999/xlink" 
	 viewBox="0 0 511.998 511.998" xml:space="preserve">
<g>
	<g>
		<path d="M495.431,461.76h-17.637V153.385c0-2.654-1.314-5.137-3.508-6.629l-85.514-58.149c-3.663-2.49-8.647-1.539-11.138,2.122
			c-2.489,3.661-1.539,8.647,2.121,11.137l82.006,55.763V461.76h-52.376v-10.259c24.2-3.856,42.756-24.866,42.756-50.133
			c0-27.995-22.777-50.772-50.772-50.772c-27.995,0-50.772,22.777-50.772,50.772c0,25.268,18.556,46.278,42.756,50.133v10.259
			h-52.376V187.589c0-4.427-3.588-8.017-8.017-8.017H179.039c-4.428,0-8.017,3.589-8.017,8.017V461.76h-52.376v-10.259
			c24.2-3.856,42.756-24.866,42.756-50.133c0-27.995-22.777-50.772-50.772-50.772c-27.995,0-50.772,22.777-50.772,50.772
			c0,25.268,18.556,46.278,42.756,50.133v10.259H50.237V157.628L255.999,17.71l98.105,66.713c3.664,2.489,8.648,1.539,11.138-2.122
			c2.49-3.661,1.539-8.647-2.121-11.137L260.508,1.387c-2.722-1.849-6.295-1.849-9.017,0L37.712,146.756
			c-2.194,1.491-3.508,3.974-3.508,6.628V461.76H16.567c-4.428,0-8.017,3.589-8.017,8.017v34.205c0,4.427,3.588,8.017,8.017,8.017
			h478.864c4.428,0,8.017-3.589,8.017-8.017v-34.205C503.448,465.35,499.86,461.76,495.431,461.76z M366.63,401.368
			c0-19.155,15.583-34.739,34.739-34.739c19.156,0,34.739,15.584,34.739,34.739c0,19.155-15.583,34.739-34.739,34.739
			C382.213,436.107,366.63,420.522,366.63,401.368z M187.056,195.606h137.887V461.76h-9.62v-94.597c0-4.427-3.588-8.017-8.017-8.017
			h-9.086v-60.393c0-4.427-3.588-8.017-8.017-8.017h-68.409c-4.428,0-8.017,3.589-8.017,8.017v60.393h-9.086
			c-4.428,0-8.017,3.589-8.017,8.017v94.597h-9.62V195.606z M238.897,359.147h-9.086v-52.376h52.376v52.376h-9.086H238.897z
			 M265.085,375.18v35.273h-18.171V375.18H265.085z M230.88,375.18v43.29c0,4.427,3.588,8.017,8.017,8.017h34.205
			c4.428,0,8.017-3.589,8.017-8.017v-43.29h18.171v86.58h-86.58v-86.58H230.88z M75.891,401.368
			c0-19.155,15.583-34.739,34.739-34.739s34.739,15.584,34.739,34.739c0,19.155-15.583,34.739-34.739,34.739
			S75.891,420.522,75.891,401.368z M487.415,495.965H24.584v-18.171h462.831V495.965z"/>
	</g>
</g>
<g>
	<g>
		<path d="M290.204,145.368h-68.409c-4.428,0-8.017,3.589-8.017,8.017s3.588,8.017,8.017,8.017h68.409
			c4.428,0,8.017-3.589,8.017-8.017S294.632,145.368,290.204,145.368z"/>
	</g>
</g>
<g>
	<g>
		<path d="M290.204,111.163h-68.409c-4.428,0-8.017,3.589-8.017,8.017s3.588,8.017,8.017,8.017h68.409
			c4.428,0,8.017-3.589,8.017-8.017S294.632,111.163,290.204,111.163z"/>
	</g>
</g>
<g>
	<g>
		<path d="M290.204,76.959h-68.409c-4.428,0-8.017,3.589-8.017,8.017s3.588,8.017,8.017,8.017h68.409
			c4.428,0,8.017-3.589,8.017-8.017S294.632,76.959,290.204,76.959z"/>
	</g>
</g>
<g>
	<g>
		<path d="M144.834,213.777H76.425c-4.428,0-8.017,3.589-8.017,8.017v76.96c0,4.427,3.588,8.017,8.017,8.017h68.409
			c4.428,0,8.017-3.589,8.017-8.017v-76.96C152.851,217.366,149.263,213.777,144.834,213.777z M136.818,290.737H84.442v-60.927
			h52.376V290.737z"/>
	</g>
</g>
<g>
	<g>
		<path d="M435.573,213.777h-68.409c-4.428,0-8.017,3.589-8.017,8.017v76.96c0,4.427,3.588,8.017,8.017,8.017h68.409
			c4.428,0,8.017-3.589,8.017-8.017v-76.96C443.59,217.366,440.002,213.777,435.573,213.777z M427.557,290.737h-52.376v-60.927
			h52.376V290.737z"/>
	</g>
</g>
<g>
	<g>
		<path d="M264.55,316.391h-17.102c-4.428,0-8.017,3.589-8.017,8.017s3.588,8.017,8.017,8.017h17.102
			c4.428,0,8.017-3.589,8.017-8.017S268.979,316.391,264.55,316.391z"/>
	</g>
</g>
<g>
	<g>
		<path d="M273.102,436.107h-34.205c-4.428,0-8.017,3.589-8.017,8.017c0,4.427,3.588,8.017,8.017,8.017h34.205
			c4.428,0,8.017-3.589,8.017-8.017C281.118,439.696,277.53,436.107,273.102,436.107z"/>
	</g>
</g>
<g>
	<g>
		<path d="M255.999,222.328c-4.428,0-8.017,3.589-8.017,8.017v17.102c0,4.427,3.588,8.017,8.017,8.017
			c4.428,0,8.017-3.589,8.017-8.017v-17.102C264.016,225.918,260.428,222.328,255.999,222.328z"/>
	</g>
</g>
<g>
	<g>
		<path d="M225.388,256.806l-12.092-12.093c-3.131-3.131-8.207-3.132-11.337,0c-3.132,3.131-3.132,8.206-0.001,11.337l12.092,12.093
			c3.261,3.261,8.765,3.041,11.763-0.46C228.501,264.546,228.307,259.726,225.388,256.806z"/>
	</g>
</g>
<g>
	<g>
		<path d="M310.039,244.713c-3.13-3.132-8.206-3.131-11.337,0l-12.092,12.093c-4.938,4.938-1.343,13.685,5.668,13.685
			c2.051,0,4.103-0.782,5.669-2.348l12.092-12.093C313.171,252.919,313.171,247.843,310.039,244.713z"/>
	</g>
</g>
</svg>